<svg xmlns="http://www.w3.org/2000/svg" xmlns:xlink="http://www.w3.org/1999/xlink" width="500" zoomAndPan="magnify" viewBox="0 0 375 374.999991" height="500" preserveAspectRatio="xMidYMid meet" version="1.0"><defs><g/><clipPath id="f2885544d2"><path d="M 48.796875 227.195312 L 68.296875 227.195312 L 68.296875 246.695312 L 48.796875 246.695312 Z M 48.796875 227.195312 " clip-rule="nonzero"/></clipPath><clipPath id="d3b9ef560b"><path d="M 71.992188 245.839844 L 85.492188 245.839844 L 85.492188 259.339844 L 71.992188 259.339844 Z M 71.992188 245.839844 " clip-rule="nonzero"/></clipPath><clipPath id="30c5973639"><path d="M 124.96875 129.910156 L 138.46875 129.910156 L 138.46875 143.410156 L 124.96875 143.410156 Z M 124.96875 129.910156 " clip-rule="nonzero"/></clipPath><clipPath id="2b74bbf13e"><path d="M 306.007812 234.96875 L 319.507812 234.96875 L 319.507812 248.46875 L 306.007812 248.46875 Z M 306.007812 234.96875 " clip-rule="nonzero"/></clipPath><clipPath id="8064cafc7a"><path d="M 318.382812 128.585938 L 337.882812 128.585938 L 337.882812 148.085938 L 318.382812 148.085938 Z M 318.382812 128.585938 " clip-rule="nonzero"/></clipPath><clipPath id="48e3ea9548"><path d="M 304.121094 117.148438 L 317.621094 117.148438 L 317.621094 130.648438 L 304.121094 130.648438 Z M 304.121094 117.148438 " clip-rule="nonzero"/></clipPath></defs><g fill="#191919" fill-opacity="1"><g transform="translate(23.494205, 205.001662)"><g><path d="M 23.574219 0.246094 C 30.507812 0.246094 35.648438 -4.566406 39.316406 -18.191406 C 39.890625 -20.148438 37.195312 -20.800781 36.300781 -19.414062 C 32.875 -14.113281 31.730469 -18.679688 25.125 -18.679688 C 21.371094 -18.679688 18.925781 -17.046875 16.886719 -14.925781 C 15.253906 -13.296875 13.949219 -15.742188 15.582031 -17.046875 C 22.59375 -22.515625 44.457031 -30.101562 44.457031 -46.824219 C 44.457031 -55.632812 38.503906 -60.851562 29.691406 -60.851562 C 20.066406 -60.851562 13.296875 -53.917969 11.09375 -44.539062 C 9.953125 -39.5625 11.910156 -37.6875 13.785156 -37.6875 C 15.007812 -37.6875 16.234375 -38.582031 16.886719 -40.460938 C 17.863281 -43.316406 20.800781 -45.355469 24.0625 -45.355469 C 27.488281 -45.355469 29.039062 -43.070312 29.039062 -40.132812 C 29.039062 -34.097656 22.59375 -28.875 7.914062 -20.3125 C -0.652344 -15.335938 -2.285156 -8.320312 -2.285156 -4.730469 C -2.285156 -1.140625 -0.40625 0 1.714844 0 C 4.566406 0 5.628906 -2.039062 5.628906 -3.753906 C 5.628906 -4.976562 6.445312 -5.953125 7.832031 -5.953125 C 11.421875 -5.953125 15.417969 0.246094 23.574219 0.246094 Z M 23.574219 0.246094 "/></g></g></g><g fill="#191919" fill-opacity="1"><g transform="translate(93.643841, 205.001662)"><g><path d="M 26.023438 17.539062 C 44.863281 17.539062 54.980469 4.40625 58.160156 -16.558594 C 59.382812 -24.796875 60.851562 -28.796875 62.15625 -32.957031 C 64.769531 -41.519531 70.558594 -47.636719 70.476562 -53.101562 C 70.558594 -56.855469 68.359375 -58.8125 65.011719 -58.8125 C 62.402344 -58.8125 58.488281 -57.589844 54.410156 -43.234375 C 50.820312 -30.996094 47.554688 -23.65625 40.949219 -23.65625 C 38.175781 -23.65625 36.953125 -25.777344 36.953125 -29.203125 C 36.953125 -36.21875 43.316406 -47.554688 50.574219 -50.492188 C 53.265625 -57.507812 47.394531 -60.691406 38.011719 -60.691406 C 15.417969 -60.691406 1.222656 -49.351562 1.222656 -36.054688 C 1.222656 -30.507812 4.730469 -25.449219 11.421875 -25.449219 C 19.332031 -25.449219 23.574219 -32.464844 22.105469 -36.054688 C 20.3125 -36.054688 19.007812 -37.847656 19.007812 -40.214844 C 19.007812 -47.3125 27.410156 -50.984375 41.03125 -50.492188 C 32.222656 -46.089844 23.167969 -30.425781 23.167969 -20.230469 C 23.167969 -12.316406 27.082031 -6.527344 34.34375 -6.527344 C 40.949219 -6.527344 47.148438 -11.421875 49.757812 -20.3125 C 50.167969 -21.617188 51.554688 -21.699219 51.554688 -20.3125 C 51.554688 -16.394531 48.535156 -1.222656 33.117188 -1.222656 C 23.492188 -1.222656 19.742188 -7.585938 20.066406 -13.050781 C 20.066406 -14.03125 19.742188 -14.847656 17.292969 -14.847656 C 1.550781 -14.847656 -2.121094 17.539062 26.023438 17.539062 Z M 26.023438 17.539062 "/></g></g></g><g fill="#191919" fill-opacity="1"><g transform="translate(155.63654, 205.001662)"><g><path d="M 15.335938 0 C 24.796875 0 33.445312 -7.015625 40.621094 -20.3125 C 41.519531 -21.863281 38.257812 -24.308594 36.953125 -22.351562 C 33.28125 -16.722656 26.675781 -13.867188 21.128906 -13.867188 C 16.476562 -13.867188 12.644531 -15.335938 12.644531 -18.191406 C 12.644531 -19.25 13.460938 -19.496094 14.03125 -19.167969 C 15.90625 -18.109375 18.109375 -17.863281 20.394531 -17.863281 C 28.386719 -17.863281 33.527344 -24.554688 33.527344 -30.507812 C 33.527344 -35.890625 30.183594 -40.785156 22.59375 -40.785156 C -0.816406 -40.785156 -7.585938 0 15.335938 0 Z M 18.273438 -23.980469 C 15.660156 -23.980469 14.4375 -25.53125 14.4375 -27.328125 C 14.4375 -29.527344 16.394531 -31.894531 19.578125 -31.894531 C 22.105469 -31.894531 23.328125 -30.34375 23.328125 -28.550781 C 23.328125 -26.511719 21.453125 -23.980469 18.273438 -23.980469 Z M 18.273438 -23.980469 "/></g></g></g><g fill="#191919" fill-opacity="1"><g transform="translate(190.711358, 205.001662)"><g><path d="M 8.648438 0 C 14.4375 0 19.332031 -5.300781 22.59375 -11.910156 L 22.921875 -11.910156 C 21.941406 -5.140625 24.308594 0 29.9375 0 C 38.992188 0 43.476562 -12.726562 47.476562 -20.3125 C 48.289062 -21.863281 45.027344 -24.308594 43.804688 -22.351562 C 42.171875 -19.742188 40.132812 -18.191406 37.359375 -18.191406 C 33.769531 -18.191406 32.875 -21.453125 35.648438 -27.410156 C 37.441406 -32.140625 39.5625 -34.667969 39.5625 -37.769531 C 39.5625 -39.5625 38.828125 -40.785156 36.707031 -40.785156 C 32.875 -40.785156 32.300781 -37.6875 29.609375 -37.6875 C 27.488281 -37.6875 27.816406 -40.785156 21.289062 -40.785156 C 7.261719 -40.785156 0.246094 -23.65625 0.246094 -12.316406 C 0.246094 -5.058594 3.101562 0 8.648438 0 Z M 16.804688 -16.886719 C 14.273438 -16.886719 12.726562 -18.515625 12.726562 -21.289062 C 12.726562 -24.878906 15.417969 -28.875 19.660156 -28.875 C 22.269531 -28.875 23.902344 -27.246094 23.902344 -24.554688 C 23.902344 -21.128906 21.046875 -16.886719 16.804688 -16.886719 Z M 16.804688 -16.886719 "/></g></g></g><g fill="#191919" fill-opacity="1"><g transform="translate(232.638017, 205.001662)"><g><path d="M 34.097656 -22.351562 C 32.464844 -19.902344 30.914062 -18.191406 28.46875 -18.191406 C 24.796875 -18.191406 23.410156 -19.902344 23.410156 -22.1875 C 23.410156 -27.246094 26.917969 -30.671875 26.917969 -35.320312 C 26.917969 -39.726562 19.085938 -44.945312 11.421875 -44.945312 C 7.015625 -44.945312 4.160156 -40.949219 4.160156 -37.605469 C 4.160156 -34.667969 5.21875 -33.609375 6.851562 -33.035156 C 5.464844 -29.285156 3.425781 -24.554688 1.875 -22.351562 C 0.816406 -20.800781 4.488281 -18.191406 5.546875 -20.3125 C 6.851562 -23.003906 9.542969 -28.550781 11.011719 -31.8125 C 14.273438 -30.589844 15.335938 -28.550781 15.335938 -27.734375 C 15.335938 -23.820312 9.625 -16.152344 9.625 -8.566406 C 9.625 -4.40625 11.910156 0 18.597656 0 C 29.609375 0 35.15625 -15.824219 37.769531 -20.3125 C 38.664062 -21.863281 35.402344 -24.308594 34.097656 -22.351562 Z M 34.097656 -22.351562 "/></g></g></g><g fill="#191919" fill-opacity="1"><g transform="translate(264.857907, 205.001662)"><g><path d="M 33.527344 -22.351562 C 31.894531 -19.902344 30.183594 -18.109375 27.734375 -18.027344 C 26.675781 -23.085938 22.351562 -29.609375 22.351562 -31.160156 C 22.351562 -34.421875 28.304688 -34.667969 28.222656 -37.277344 C 28.304688 -39.890625 25.859375 -42.824219 20.800781 -42.824219 C 13.785156 -42.824219 7.992188 -30.671875 2.203125 -22.839844 L 1.875 -22.351562 C -3.019531 -14.195312 -1.304688 -0.0820312 13.050781 -0.0820312 C 28.222656 -0.0820312 34.914062 -15.582031 37.195312 -20.3125 C 37.929688 -21.863281 34.832031 -24.308594 33.527344 -22.351562 Z M 10.113281 -16.886719 C 7.421875 -16.886719 5.546875 -18.355469 5.546875 -20.3125 C 7.421875 -22.675781 9.953125 -26.023438 11.992188 -29.039062 C 12.726562 -30.101562 13.378906 -30.101562 13.949219 -29.039062 C 15.089844 -26.835938 15.742188 -24.796875 15.742188 -22.839844 C 15.742188 -19.496094 13.703125 -16.886719 10.113281 -16.886719 Z M 10.113281 -16.886719 "/></g></g></g><g fill="#191919" fill-opacity="1"><g transform="translate(296.425226, 205.001662)"><g><path d="M 22.921875 -32.058594 C 23.980469 -37.6875 24.226562 -42.253906 22.105469 -42.253906 C 20.148438 -42.253906 17.375 -37.605469 14.765625 -31.976562 C 5.628906 -31.730469 4.648438 -30.589844 3.507812 -27.082031 C 2.367188 -23.820312 4.976562 -22.675781 10.929688 -22.269531 C 9.21875 -17.457031 8.15625 -13.539062 8.320312 -12.726562 C 8.890625 -10.195312 14.03125 -9.136719 16.640625 -11.746094 C 17.128906 -12.234375 18.84375 -16.722656 20.394531 -22.105469 C 28.304688 -22.351562 31.324219 -23.410156 32.628906 -27.082031 C 33.933594 -30.753906 31.8125 -31.894531 22.921875 -32.058594 Z M 22.921875 -32.058594 "/></g></g></g><g fill="#191919" fill-opacity="1"><g transform="translate(326.116452, 205.001662)"><g><path d="M 22.921875 -32.058594 C 23.980469 -37.6875 24.226562 -42.253906 22.105469 -42.253906 C 20.148438 -42.253906 17.375 -37.605469 14.765625 -31.976562 C 5.628906 -31.730469 4.648438 -30.589844 3.507812 -27.082031 C 2.367188 -23.820312 4.976562 -22.675781 10.929688 -22.269531 C 9.21875 -17.457031 8.15625 -13.539062 8.320312 -12.726562 C 8.890625 -10.195312 14.03125 -9.136719 16.640625 -11.746094 C 17.128906 -12.234375 18.84375 -16.722656 20.394531 -22.105469 C 28.304688 -22.351562 31.324219 -23.410156 32.628906 -27.082031 C 33.933594 -30.753906 31.8125 -31.894531 22.921875 -32.058594 Z M 22.921875 -32.058594 "/></g></g></g><g fill="#c6b8d1" fill-opacity="1"><g transform="translate(21.331054, 202.838511)"><g><path d="M 23.574219 0.246094 C 30.507812 0.246094 35.648438 -4.566406 39.316406 -18.191406 C 39.890625 -20.148438 37.195312 -20.800781 36.300781 -19.414062 C 32.875 -14.113281 31.730469 -18.679688 25.125 -18.679688 C 21.371094 -18.679688 18.925781 -17.046875 16.886719 -14.925781 C 15.253906 -13.296875 13.949219 -15.742188 15.582031 -17.046875 C 22.59375 -22.515625 44.457031 -30.101562 44.457031 -46.824219 C 44.457031 -55.632812 38.503906 -60.851562 29.691406 -60.851562 C 20.066406 -60.851562 13.296875 -53.917969 11.09375 -44.539062 C 9.953125 -39.5625 11.910156 -37.6875 13.785156 -37.6875 C 15.007812 -37.6875 16.234375 -38.582031 16.886719 -40.460938 C 17.863281 -43.316406 20.800781 -45.355469 24.0625 -45.355469 C 27.488281 -45.355469 29.039062 -43.070312 29.039062 -40.132812 C 29.039062 -34.097656 22.59375 -28.875 7.914062 -20.3125 C -0.652344 -15.335938 -2.285156 -8.320312 -2.285156 -4.730469 C -2.285156 -1.140625 -0.40625 0 1.714844 0 C 4.566406 0 5.628906 -2.039062 5.628906 -3.753906 C 5.628906 -4.976562 6.445312 -5.953125 7.832031 -5.953125 C 11.421875 -5.953125 15.417969 0.246094 23.574219 0.246094 Z M 23.574219 0.246094 "/></g></g></g><g fill="#c6b8d1" fill-opacity="1"><g transform="translate(62.115727, 202.838511)"><g/></g></g><g fill="#c6b8d1" fill-opacity="1"><g transform="translate(91.48069, 202.838511)"><g><path d="M 26.023438 17.539062 C 44.863281 17.539062 54.980469 4.40625 58.160156 -16.558594 C 59.382812 -24.796875 60.851562 -28.796875 62.15625 -32.957031 C 64.769531 -41.519531 70.558594 -47.636719 70.476562 -53.101562 C 70.558594 -56.855469 68.359375 -58.8125 65.011719 -58.8125 C 62.402344 -58.8125 58.488281 -57.589844 54.410156 -43.234375 C 50.820312 -30.996094 47.554688 -23.65625 40.949219 -23.65625 C 38.175781 -23.65625 36.953125 -25.777344 36.953125 -29.203125 C 36.953125 -36.21875 43.316406 -47.554688 50.574219 -50.492188 C 53.265625 -57.507812 47.394531 -60.691406 38.011719 -60.691406 C 15.417969 -60.691406 1.222656 -49.351562 1.222656 -36.054688 C 1.222656 -30.507812 4.730469 -25.449219 11.421875 -25.449219 C 19.332031 -25.449219 23.574219 -32.464844 22.105469 -36.054688 C 20.3125 -36.054688 19.007812 -37.847656 19.007812 -40.214844 C 19.007812 -47.3125 27.410156 -50.984375 41.03125 -50.492188 C 32.222656 -46.089844 23.167969 -30.425781 23.167969 -20.230469 C 23.167969 -12.316406 27.082031 -6.527344 34.34375 -6.527344 C 40.949219 -6.527344 47.148438 -11.421875 49.757812 -20.3125 C 50.167969 -21.617188 51.554688 -21.699219 51.554688 -20.3125 C 51.554688 -16.394531 48.535156 -1.222656 33.117188 -1.222656 C 23.492188 -1.222656 19.742188 -7.585938 20.066406 -13.050781 C 20.066406 -14.03125 19.742188 -14.847656 17.292969 -14.847656 C 1.550781 -14.847656 -2.121094 17.539062 26.023438 17.539062 Z M 26.023438 17.539062 "/></g></g></g><g fill="#c6b8d1" fill-opacity="1"><g transform="translate(153.473389, 202.838511)"><g><path d="M 15.335938 0 C 24.796875 0 33.445312 -7.015625 40.621094 -20.3125 C 41.519531 -21.863281 38.257812 -24.308594 36.953125 -22.351562 C 33.28125 -16.722656 26.675781 -13.867188 21.128906 -13.867188 C 16.476562 -13.867188 12.644531 -15.335938 12.644531 -18.191406 C 12.644531 -19.25 13.460938 -19.496094 14.03125 -19.167969 C 15.90625 -18.109375 18.109375 -17.863281 20.394531 -17.863281 C 28.386719 -17.863281 33.527344 -24.554688 33.527344 -30.507812 C 33.527344 -35.890625 30.183594 -40.785156 22.59375 -40.785156 C -0.816406 -40.785156 -7.585938 0 15.335938 0 Z M 18.273438 -23.980469 C 15.660156 -23.980469 14.4375 -25.53125 14.4375 -27.328125 C 14.4375 -29.527344 16.394531 -31.894531 19.578125 -31.894531 C 22.105469 -31.894531 23.328125 -30.34375 23.328125 -28.550781 C 23.328125 -26.511719 21.453125 -23.980469 18.273438 -23.980469 Z M 18.273438 -23.980469 "/></g></g></g><g fill="#c6b8d1" fill-opacity="1"><g transform="translate(188.548206, 202.838511)"><g><path d="M 8.648438 0 C 14.4375 0 19.332031 -5.300781 22.59375 -11.910156 L 22.921875 -11.910156 C 21.941406 -5.140625 24.308594 0 29.9375 0 C 38.992188 0 43.476562 -12.726562 47.476562 -20.3125 C 48.289062 -21.863281 45.027344 -24.308594 43.804688 -22.351562 C 42.171875 -19.742188 40.132812 -18.191406 37.359375 -18.191406 C 33.769531 -18.191406 32.875 -21.453125 35.648438 -27.410156 C 37.441406 -32.140625 39.5625 -34.667969 39.5625 -37.769531 C 39.5625 -39.5625 38.828125 -40.785156 36.707031 -40.785156 C 32.875 -40.785156 32.300781 -37.6875 29.609375 -37.6875 C 27.488281 -37.6875 27.816406 -40.785156 21.289062 -40.785156 C 7.261719 -40.785156 0.246094 -23.65625 0.246094 -12.316406 C 0.246094 -5.058594 3.101562 0 8.648438 0 Z M 16.804688 -16.886719 C 14.273438 -16.886719 12.726562 -18.515625 12.726562 -21.289062 C 12.726562 -24.878906 15.417969 -28.875 19.660156 -28.875 C 22.269531 -28.875 23.902344 -27.246094 23.902344 -24.554688 C 23.902344 -21.128906 21.046875 -16.886719 16.804688 -16.886719 Z M 16.804688 -16.886719 "/></g></g></g><g fill="#c6b8d1" fill-opacity="1"><g transform="translate(230.474866, 202.838511)"><g><path d="M 34.097656 -22.351562 C 32.464844 -19.902344 30.914062 -18.191406 28.46875 -18.191406 C 24.796875 -18.191406 23.410156 -19.902344 23.410156 -22.1875 C 23.410156 -27.246094 26.917969 -30.671875 26.917969 -35.320312 C 26.917969 -39.726562 19.085938 -44.945312 11.421875 -44.945312 C 7.015625 -44.945312 4.160156 -40.949219 4.160156 -37.605469 C 4.160156 -34.667969 5.21875 -33.609375 6.851562 -33.035156 C 5.464844 -29.285156 3.425781 -24.554688 1.875 -22.351562 C 0.816406 -20.800781 4.488281 -18.191406 5.546875 -20.3125 C 6.851562 -23.003906 9.542969 -28.550781 11.011719 -31.8125 C 14.273438 -30.589844 15.335938 -28.550781 15.335938 -27.734375 C 15.335938 -23.820312 9.625 -16.152344 9.625 -8.566406 C 9.625 -4.40625 11.910156 0 18.597656 0 C 29.609375 0 35.15625 -15.824219 37.769531 -20.3125 C 38.664062 -21.863281 35.402344 -24.308594 34.097656 -22.351562 Z M 34.097656 -22.351562 "/></g></g></g><g fill="#c6b8d1" fill-opacity="1"><g transform="translate(262.694756, 202.838511)"><g><path d="M 33.527344 -22.351562 C 31.894531 -19.902344 30.183594 -18.109375 27.734375 -18.027344 C 26.675781 -23.085938 22.351562 -29.609375 22.351562 -31.160156 C 22.351562 -34.421875 28.304688 -34.667969 28.222656 -37.277344 C 28.304688 -39.890625 25.859375 -42.824219 20.800781 -42.824219 C 13.785156 -42.824219 7.992188 -30.671875 2.203125 -22.839844 L 1.875 -22.351562 C -3.019531 -14.195312 -1.304688 -0.0820312 13.050781 -0.0820312 C 28.222656 -0.0820312 34.914062 -15.582031 37.195312 -20.3125 C 37.929688 -21.863281 34.832031 -24.308594 33.527344 -22.351562 Z M 10.113281 -16.886719 C 7.421875 -16.886719 5.546875 -18.355469 5.546875 -20.3125 C 7.421875 -22.675781 9.953125 -26.023438 11.992188 -29.039062 C 12.726562 -30.101562 13.378906 -30.101562 13.949219 -29.039062 C 15.089844 -26.835938 15.742188 -24.796875 15.742188 -22.839844 C 15.742188 -19.496094 13.703125 -16.886719 10.113281 -16.886719 Z M 10.113281 -16.886719 "/></g></g></g><g fill="#c6b8d1" fill-opacity="1"><g transform="translate(294.262075, 202.838511)"><g><path d="M 22.921875 -32.058594 C 23.980469 -37.6875 24.226562 -42.253906 22.105469 -42.253906 C 20.148438 -42.253906 17.375 -37.605469 14.765625 -31.976562 C 5.628906 -31.730469 4.648438 -30.589844 3.507812 -27.082031 C 2.367188 -23.820312 4.976562 -22.675781 10.929688 -22.269531 C 9.21875 -17.457031 8.15625 -13.539062 8.320312 -12.726562 C 8.890625 -10.195312 14.03125 -9.136719 16.640625 -11.746094 C 17.128906 -12.234375 18.84375 -16.722656 20.394531 -22.105469 C 28.304688 -22.351562 31.324219 -23.410156 32.628906 -27.082031 C 33.933594 -30.753906 31.8125 -31.894531 22.921875 -32.058594 Z M 22.921875 -32.058594 "/></g></g></g><g fill="#c6b8d1" fill-opacity="1"><g transform="translate(323.953301, 202.838511)"><g><path d="M 22.921875 -32.058594 C 23.980469 -37.6875 24.226562 -42.253906 22.105469 -42.253906 C 20.148438 -42.253906 17.375 -37.605469 14.765625 -31.976562 C 5.628906 -31.730469 4.648438 -30.589844 3.507812 -27.082031 C 2.367188 -23.820312 4.976562 -22.675781 10.929688 -22.269531 C 9.21875 -17.457031 8.15625 -13.539062 8.320312 -12.726562 C 8.890625 -10.195312 14.03125 -9.136719 16.640625 -11.746094 C 17.128906 -12.234375 18.84375 -16.722656 20.394531 -22.105469 C 28.304688 -22.351562 31.324219 -23.410156 32.628906 -27.082031 C 33.933594 -30.753906 31.8125 -31.894531 22.921875 -32.058594 Z M 22.921875 -32.058594 "/></g></g></g><g fill="#191919" fill-opacity="1"><g transform="translate(113.339629, 238.271629)"><g><path d="M 0.59375 0 L 7.601562 0 L 7.601562 -1.503906 L 2.613281 -1.503906 L 2.613281 -3.417969 L 7.039062 -3.417969 L 7.039062 -4.753906 L 2.613281 -4.753906 L 2.613281 -6.480469 L 7.488281 -6.480469 L 7.488281 -7.984375 L 0.59375 -7.984375 Z M 0.59375 0 "/></g></g></g><g fill="#191919" fill-opacity="1"><g transform="translate(128.47688, 238.271629)"><g><path d="M 0.0429688 0 L 2.355469 0 L 4.664062 -2.972656 L 6.996094 0 L 9.351562 0 L 5.988281 -4.183594 L 9.285156 -7.984375 L 6.941406 -7.984375 L 4.652344 -5.257812 L 2.410156 -7.984375 L 0.101562 -7.984375 L 3.328125 -4.171875 Z M 0.0429688 0 "/></g></g></g><g fill="#191919" fill-opacity="1"><g transform="translate(145.160963, 238.271629)"><g><path d="M 0.59375 0 L 2.667969 0 L 2.667969 -2.644531 L 5.527344 -2.644531 C 7.535156 -2.644531 8.757812 -3.65625 8.769531 -5.304688 C 8.769531 -6.960938 7.558594 -7.984375 5.550781 -7.984375 L 0.59375 -7.984375 Z M 2.667969 -4.035156 L 2.667969 -6.59375 L 5.046875 -6.59375 C 6.066406 -6.59375 6.671875 -6.109375 6.671875 -5.3125 C 6.671875 -4.519531 6.066406 -4.035156 5.046875 -4.035156 Z M 2.667969 -4.035156 "/></g></g></g><g fill="#191919" fill-opacity="1"><g transform="translate(161.419114, 238.271629)"><g><path d="M 0.59375 0 L 7.601562 0 L 7.601562 -1.503906 L 2.613281 -1.503906 L 2.613281 -3.417969 L 7.039062 -3.417969 L 7.039062 -4.753906 L 2.613281 -4.753906 L 2.613281 -6.480469 L 7.488281 -6.480469 L 7.488281 -7.984375 L 0.59375 -7.984375 Z M 0.59375 0 "/></g></g></g><g fill="#191919" fill-opacity="1"><g transform="translate(176.556365, 238.271629)"><g><path d="M 7.847656 0.214844 C 8.5 0.214844 9.160156 -0.0546875 9.550781 -0.449219 L 9.113281 -1.378906 C 8.96875 -1.1875 8.734375 -1.054688 8.519531 -1.054688 C 8.242188 -1.054688 8.082031 -1.234375 7.972656 -1.480469 L 7.566406 -2.433594 C 7.398438 -2.835938 7.164062 -3.140625 6.792969 -3.296875 L 6.792969 -3.308594 C 8.128906 -3.566406 8.914062 -4.394531 8.914062 -5.527344 C 8.914062 -7.050781 7.726562 -7.984375 5.785156 -7.984375 L 0.59375 -7.984375 L 0.59375 0 L 2.679688 0 L 2.679688 -2.949219 L 4.519531 -2.949219 C 5.023438 -2.949219 5.425781 -2.625 5.640625 -2.117188 L 6.089844 -1.019531 C 6.390625 -0.335938 6.929688 0.214844 7.847656 0.214844 Z M 2.679688 -4.28125 L 2.679688 -6.570312 L 5.347656 -6.570312 C 6.257812 -6.570312 6.828125 -6.121094 6.828125 -5.414062 C 6.828125 -4.71875 6.257812 -4.28125 5.347656 -4.28125 Z M 2.679688 -4.28125 "/></g></g></g><g fill="#191919" fill-opacity="1"><g transform="translate(193.431004, 238.271629)"><g><path d="M 0.59375 0 L 2.667969 0 L 2.667969 -7.984375 L 0.59375 -7.984375 Z M 0.59375 0 "/></g></g></g><g fill="#191919" fill-opacity="1"><g transform="translate(203.983792, 238.271629)"><g><path d="M 0.59375 0 L 7.601562 0 L 7.601562 -1.503906 L 2.613281 -1.503906 L 2.613281 -3.417969 L 7.039062 -3.417969 L 7.039062 -4.753906 L 2.613281 -4.753906 L 2.613281 -6.480469 L 7.488281 -6.480469 L 7.488281 -7.984375 L 0.59375 -7.984375 Z M 0.59375 0 "/></g></g></g><g fill="#191919" fill-opacity="1"><g transform="translate(219.121043, 238.271629)"><g><path d="M 0.59375 0 L 2.566406 0 L 2.566406 -5.773438 L 2.578125 -5.773438 L 6.714844 0 L 9.203125 0 L 9.203125 -7.984375 L 7.21875 -7.984375 L 7.21875 -2.230469 L 7.210938 -2.230469 L 3.082031 -7.984375 L 0.59375 -7.984375 Z M 0.59375 0 "/></g></g></g><g fill="#191919" fill-opacity="1"><g transform="translate(236.208654, 238.271629)"><g><path d="M 5.359375 0.257812 C 7.894531 0.257812 9.730469 -1.03125 10.089844 -3.050781 L 8.152344 -3.375 C 7.894531 -2.164062 6.828125 -1.390625 5.402344 -1.390625 C 3.597656 -1.390625 2.457031 -2.398438 2.457031 -3.992188 C 2.457031 -5.582031 3.488281 -6.59375 5.113281 -6.59375 C 6.3125 -6.59375 7.210938 -5.941406 7.46875 -4.898438 L 9.371094 -5.359375 C 8.945312 -7.121094 7.277344 -8.242188 5.078125 -8.242188 C 2.1875 -8.242188 0.371094 -6.582031 0.371094 -3.992188 C 0.371094 -1.367188 2.308594 0.257812 5.359375 0.257812 Z M 5.359375 0.257812 "/></g></g></g><g fill="#191919" fill-opacity="1"><g transform="translate(253.800665, 238.271629)"><g><path d="M 0.59375 0 L 7.601562 0 L 7.601562 -1.503906 L 2.613281 -1.503906 L 2.613281 -3.417969 L 7.039062 -3.417969 L 7.039062 -4.753906 L 2.613281 -4.753906 L 2.613281 -6.480469 L 7.488281 -6.480469 L 7.488281 -7.984375 L 0.59375 -7.984375 Z M 0.59375 0 "/></g></g></g><g clip-path="url(#f2885544d2)"><path fill="#191919" d="M 68.300781 236.949219 C 61.460938 238.558594 60.15625 239.859375 58.546875 246.699219 C 56.941406 239.859375 55.632812 238.558594 48.796875 236.949219 C 55.632812 235.339844 56.941406 234.035156 58.546875 227.195312 C 60.15625 234.035156 61.460938 235.339844 68.300781 236.949219 Z M 68.300781 236.949219 " fill-opacity="1" fill-rule="nonzero"/></g><g clip-path="url(#d3b9ef560b)"><path fill="#191919" d="M 85.332031 252.507812 C 80.652344 253.609375 79.761719 254.5 78.660156 259.179688 C 77.5625 254.5 76.667969 253.609375 71.992188 252.507812 C 76.667969 251.410156 77.5625 250.515625 78.660156 245.839844 C 79.761719 250.515625 80.652344 251.410156 85.332031 252.507812 Z M 85.332031 252.507812 " fill-opacity="1" fill-rule="nonzero"/></g><g clip-path="url(#30c5973639)"><path fill="#191919" d="M 138.308594 136.578125 C 133.628906 137.679688 132.738281 138.570312 131.636719 143.246094 C 130.539062 138.570312 129.644531 137.679688 124.96875 136.578125 C 129.644531 135.476562 130.539062 134.585938 131.636719 129.910156 C 132.738281 134.585938 133.628906 135.476562 138.308594 136.578125 Z M 138.308594 136.578125 " fill-opacity="1" fill-rule="nonzero"/></g><g clip-path="url(#2b74bbf13e)"><path fill="#191919" d="M 319.347656 241.636719 C 314.667969 242.738281 313.777344 243.628906 312.675781 248.308594 C 311.578125 243.628906 310.683594 242.738281 306.007812 241.636719 C 310.683594 240.539062 311.578125 239.644531 312.675781 234.96875 C 313.777344 239.644531 314.667969 240.539062 319.347656 241.636719 Z M 319.347656 241.636719 " fill-opacity="1" fill-rule="nonzero"/></g><g clip-path="url(#8064cafc7a)"><path fill="#191919" d="M 318.375 138.335938 C 325.21875 136.726562 326.519531 135.421875 328.128906 128.582031 C 329.738281 135.421875 331.042969 136.726562 337.882812 138.335938 C 331.042969 139.945312 329.738281 141.25 328.128906 148.085938 C 326.519531 141.25 325.21875 139.945312 318.375 138.335938 Z M 318.375 138.335938 " fill-opacity="1" fill-rule="nonzero"/></g><g clip-path="url(#48e3ea9548)"><path fill="#191919" d="M 304.285156 123.980469 C 308.960938 122.882812 309.851562 121.988281 310.953125 117.3125 C 312.050781 121.988281 312.945312 122.882812 317.621094 123.980469 C 312.945312 125.082031 312.050781 125.972656 310.953125 130.648438 C 309.851562 125.972656 308.960938 125.082031 304.285156 123.980469 Z M 304.285156 123.980469 " fill-opacity="1" fill-rule="nonzero"/></g></svg>